HIERARCHY
ROOT Hips
{
	OFFSET -98.4586 93.524 21.6304
	CHANNELS 6 Xposition Yposition Zposition Zrotation Xrotation Yrotation
	JOINT Spine
	{
		OFFSET 0 9.61096 0
		CHANNELS 3 Zrotation Xrotation Yrotation
		JOINT Spine1
		{
			OFFSET 0 9.61096 0
			CHANNELS 3 Zrotation Xrotation Yrotation
			JOINT Spine2
			{
				OFFSET 0 9.61096 0
				CHANNELS 3 Zrotation Xrotation Yrotation
				JOINT Spine3
				{
					OFFSET 0 9.61096 0
					CHANNELS 3 Zrotation Xrotation Yrotation
					JOINT LeftShoulder
					{
						OFFSET 1.5 7.45162 0
						CHANNELS 3 Zrotation Xrotation Yrotation
						JOINT LeftArm
						{
							OFFSET 13.8827 0 0
							CHANNELS 3 Zrotation Xrotation Yrotation
							JOINT LeftForeArm
							{
								OFFSET 27.9625 0 0
								CHANNELS 3 Zrotation Xrotation Yrotation
								JOINT LeftHand
								{
									OFFSET 22.178 0 0
									CHANNELS 3 Zrotation Xrotation Yrotation
									End Site
									{
										OFFSET 10 0 0
									}
								}
							}
						}
					}
					JOINT RightShoulder
					{
						OFFSET -1.49999 7.45162 0
						CHANNELS 3 Zrotation Xrotation Yrotation
						JOINT RightArm
						{
							OFFSET -13.8827 0 0
							CHANNELS 3 Zrotation Xrotation Yrotation
							JOINT RightForeArm
							{
								OFFSET -27.9625 0 0
								CHANNELS 3 Zrotation Xrotation Yrotation
								JOINT RightHand
								{
									OFFSET -22.178 0 0
									CHANNELS 3 Zrotation Xrotation Yrotation
									End Site
									{
										OFFSET -10 0 0
									}
								}
							}
						}
					}
					JOINT Neck
					{
						OFFSET 0 9.61096 0
						CHANNELS 3 Zrotation Xrotation Yrotation
						JOINT Head
						{
							OFFSET 0 9.64467 0
							CHANNELS 3 Zrotation Xrotation Yrotation
							End Site
							{
								OFFSET 0 15 0
							}
						}
					}
				}
			}
		}
	}
	JOINT LeftUpLeg
	{
		OFFSET 11.7021 0 0
		CHANNELS 3 Zrotation Xrotation Yrotation
		JOINT LeftLeg
		{
			OFFSET 0 -46.0068 0
			CHANNELS 3 Zrotation Xrotation Yrotation
			JOINT LeftFoot
			{
				OFFSET 0 -37.7985 0
				CHANNELS 3 Zrotation Xrotation Yrotation
				JOINT LeftToeBase
				{
					OFFSET 0 -6.40715 11.0975
					CHANNELS 3 Zrotation Xrotation Yrotation
					End Site
					{
						OFFSET 0 0 5
					}
				}
			}
		}
	}
	JOINT RightUpLeg
	{
		OFFSET -11.7021 0 0
		CHANNELS 3 Zrotation Xrotation Yrotation
		JOINT RightLeg
		{
			OFFSET 0 -46.0068 0
			CHANNELS 3 Zrotation Xrotation Yrotation
			JOINT RightFoot
			{
				OFFSET 0 -37.7985 0
				CHANNELS 3 Zrotation Xrotation Yrotation
				JOINT RightToeBase
				{
					OFFSET 0 -6.40715 11.0975
					CHANNELS 3 Zrotation Xrotation Yrotation
					End Site
					{
						OFFSET 0 0 5
					}
				}
			}
		}
	}
}
MOTION
Frames: 20
Frame Time: 0.0111111
-98.4586 93.524 21.6304 2.58372 3.72469 12.2861 0.748811 6.05663 0.0134347 0.748811 6.05663 0.0134347 0.748811 6.05663 0.0134347 0.748811 6.05663 0.0134347 162.988 179.32 179.152 156.418 153.189 143.762 9.72003 41.9009 -19.0203 174.531 -175.435 174.268 14.7471 2.74357 4.86783 20.5154 29.2673 29.9797 1.90815 6.04851 15.1978 12.9811 -13.7657 8.09981 179.439 -161.406 178.962 1.4931 5.18827 1.66453 1.53857 -21.2969 13.4569 5.86086 25.6479 -1.76226 178.202 174.628 -174.387 0.128094 -8.76015 0.120677 179.423 -173.225 -176.325 3.98195 -1.03787 -6.91696 174.729 176.244 164.322 0.0977839 0.613598 0.128189
-98.2838 93.4632 21.7016 2.27658 3.5759 11.9316 0.895845 6.05079 -0.0109176 0.895845 6.05079 -0.0109176 0.895845 6.05079 -0.0109176 0.895845 6.05079 -0.0109176 162.703 179.322 179.152 156.39 153.128 143.812 9.29469 42.0702 -18.46 175.087 -175.978 174.923 14.5297 2.7434 4.86783 20.4509 29.4405 30.0417 1.84905 5.96952 15.2969 13.7342 -14.0104 8.68948 179.224 -161.4 179.053 1.4798 5.14121 1.65052 2.06924 -20.2594 12.6612 5.80345 23.9421 -1.73818 178.1 174.603 -174.098 0.128069 -8.74852 0.120673 179.699 -173.329 -176.056 3.98181 -1.03905 -6.91696 174.779 176.242 164.421 0.097795 0.608639 0.128189
-98.08 93.3877 21.8048 2.02966 3.36071 11.6496 1.02746 6.05699 -0.0613868 1.02746 6.05699 -0.0613868 1.02746 6.05699 -0.0613868 1.02746 6.05699 -0.0613868 162.484 179.269 179.152 156.318 153.116 143.868 8.80079 42.1996 -17.8681 175.239 -176.124 175.184 14.3935 2.79194 4.86803 20.3486 29.4678 30.1246 2.09298 5.7791 15.3843 13.7034 -14.141 8.80207 179.023 -161.454 179.1 1.48823 5.05587 1.65297 2.49644 -19.1068 11.7154 5.7482 22.2567 -1.7165 177.986 174.637 -173.995 0.127668 -8.55988 0.120613 179.911 -173.546 -175.872 3.98221 -1.03576 -6.91695 174.512 176.307 164.574 0.0970257 0.952418 0.128199
-97.8727 93.3283 21.8876 1.69819 3.18983 11.3272 1.18509 6.05496 -0.108413 1.18509 6.05496 -0.108413 1.18509 6.05496 -0.108413 1.18509 6.05496 -0.108413 162.204 179.278 179.152 156.271 153.027 143.955 8.36576 42.3621 -17.3473 175.075 -176.056 175.296 14.209 2.73482 4.8678 20.3 29.6306 30.1787 2.21086 5.41478 15.4338 13.7205 -13.8164 8.63371 178.816 -161.448 179.163 1.50502 5.0174 1.66517 3.00507 -18.0008 10.7987 5.69481 20.5888 -1.697 177.697 174.668 -173.914 0.127407 -8.43725 0.120574 0.189468 -6.32123 4.45654 3.98268 -1.03187 -6.91694 174.614 176.327 164.543 0.0969257 0.997127 0.128201
-97.654 93.2604 21.9809 1.31632 2.9775 11.0519 1.3601 6.05315 -0.166532 1.3601 6.05315 -0.166532 1.3601 6.05315 -0.166532 1.3601 6.05315 -0.166532 161.976 179.247 179.152 156.141 153.009 144.011 7.92474 42.6151 -16.8429 175.163 -176.179 175.545 14.0316 2.81517 4.86813 20.1734 29.6872 30.2654 2.29115 5.3064 15.4243 13.6562 -13.7046 8.53708 178.615 -161.487 179.174 1.51552 4.96091 1.6705 3.5434 -16.8604 9.86647 5.64369 18.9566 -1.6797 177.537 174.687 -174.071 0.127522 -8.49161 0.120591 0.500675 -6.13589 4.77519 3.9832 -1.02756 -6.91693 174.742 176.338 164.519 0.0969142 1.00225 0.128201
-97.4204 93.1733 22.094 0.873682 2.70037 10.758 1.56093 6.05587 -0.231677 1.56093 6.05587 -0.231677 1.56093 6.05587 -0.231677 1.56093 6.05587 -0.231677 161.784 179.223 179.152 155.943 152.849 144.123 7.58574 42.7023 -16.3849 175.586 -176.507 175.884 13.7413 2.87501 4.86838 20.1417 29.76 30.3279 2.29151 5.28889 15.4206 13.941 -13.7137 8.64064 178.385 -161.626 179.216 1.54428 4.82621 1.68785 4.12761 -15.6017 8.98243 5.59295 17.3046 -1.66391 177.905 174.554 -174.506 0.128038 -8.734 0.120668 0.882045 -5.88847 5.13823 3.98396 -1.02132 -6.91692 174.827 176.345 164.448 0.0970428 0.944766 0.128199
-97.1792 93.1118 22.1863 0.455937 2.47192 10.5299 1.74098 6.06191 -0.308079 1.74098 6.06191 -0.308079 1.74098 6.06191 -0.308079 1.74098 6.06191 -0.308079 161.614 179.216 179.152 155.826 152.755 144.168 7.22117 42.9488 -16.0151 174.444 -175.991 175.4 13.5987 2.90493 4.86851 20.101 29.7398 30.3454 2.29929 5.34564 15.3536 13.784 -13.517 8.45213 178.234 -161.645 179.218 1.56222 4.77188 1.69911 4.66082 -14.4784 8.03143 5.54809 15.8185 -1.65112 177.747 174.74 -174.833 0.127963 -8.69868 0.120657 1.19594 -5.68017 5.55054 3.98478 -1.01456 -6.91691 175.279 176.392 164.228 0.0977192 0.642491 0.12819
-96.9137 93.0482 22.2748 0.109217 2.27257 10.3411 1.88401 6.05604 -0.395174 1.88401 6.05604 -0.395174 1.88401 6.05604 -0.395174 1.88401 6.05604 -0.395174 161.485 179.203 179.152 155.781 152.627 144.201 6.76966 43.0502 -15.5605 174.35 -176.116 175.498 13.5121 2.94382 4.86868 20.1076 29.7547 30.3368 2.26215 5.48137 15.2518 13.8083 -13.5975 8.41945 178.195 -161.697 179.208 1.56066 4.69988 1.69465 5.0816 -13.3949 7.00761 5.50654 14.4222 -1.64028 177.646 174.937 -175.251 0.127565 -8.51165 0.120597 1.42458 -5.48637 5.84233 3.98573 -1.00674 -6.91689 175.402 176.445 164.121 0.0979012 0.561138 0.128188
-96.6381 92.9905 22.3523 179.733 177.882 -169.828 2.03309 6.03334 -0.484495 2.03309 6.03334 -0.484495 2.03309 6.03334 -0.484495 2.03309 6.03334 -0.484495 161.352 179.117 179.152 155.808 152.421 144.171 6.63767 43.6463 -15.2586 174.137 -175.546 175.402 13.4458 2.99248 4.8689 20.1406 29.7494 30.2518 2.22047 5.5353 15.1542 13.7682 -13.6527 8.4125 178.115 -161.768 179.14 1.6131 4.64374 1.73572 5.50497 -12.398 5.96415 5.4677 13.1012 -1.63104 177.491 175.076 -175.633 0.127646 -8.54986 0.120609 1.66285 -5.34554 6.13581 3.98658 -0.999713 -6.91687 175.556 176.412 164.017 0.0979517 0.538585 0.128187
-96.339 92.941 22.4141 179.45 178.011 -169.966 2.133 6.02314 -0.58675 2.133 6.02314 -0.58675 2.133 6.02314 -0.58675 2.133 6.02314 -0.58675 161.308 179.123 179.152 155.716 152.395 144.252 6.30145 43.9335 -14.965 173.79 -175.399 175.339 13.5422 3.01866 4.86901 20.1227 29.6599 30.1935 2.2849 5.49074 14.9174 13.5826 -13.3893 8.48681 178.191 -161.723 179.119 1.61166 4.63054 1.73311 5.81269 -11.4645 4.85981 5.43314 11.9137 -1.62356 177.033 175.324 -176.018 0.127051 -8.26993 0.120522 1.78872 -5.24838 6.39922 3.99568 -0.92468 -6.91672 175.697 176.509 163.882 0.0977332 0.636238 0.128189
-96.0085 92.9306 22.4223 179.293 177.996 -170.105 2.17214 5.98488 -0.673949 2.17214 5.98488 -0.673949 2.17214 5.98488 -0.673949 2.17214 5.98488 -0.673949 161.228 179.079 179.152 155.87 152.331 144.179 5.82485 43.892 -14.5264 174.025 -176.058 175.621 13.8393 3.07407 4.86926 20.0228 29.5657 30.0683 2.2488 5.55993 14.7265 13.747 -13.5353 8.60194 178.371 -161.632 178.993 1.59751 4.72711 1.72586 5.95042 -10.7695 3.7144 5.40534 10.9507 -1.61805 175.97 175.756 -176.126 0.125813 -7.68676 0.12035 1.73337 -5.37689 6.51916 4.02594 -0.675287 -6.9163 175.87 176.617 163.851 0.0977232 0.640693 0.12819
-95.6565 92.9019 22.4446 179.154 178.026 -170.233 2.20224 5.95811 -0.761005 2.20224 5.95811 -0.761005 2.20224 5.95811 -0.761005 2.20224 5.95811 -0.761005 161.207 179.101 179.152 156.027 152.162 144.116 5.46247 43.9961 -14.1809 173.47 -175.848 175.399 14.1204 3.09721 4.86937 19.9358 29.5649 29.9157 2.28165 5.42455 14.5727 13.1404 -12.7664 7.94029 178.529 -161.553 178.907 1.61528 4.77483 1.74377 6.00563 -10.0459 2.77687 5.38043 10.0822 -1.6135 175.449 176.318 -176.408 0.124574 -7.10158 0.120191 1.6529 -5.46105 6.52004 4.05627 -0.425261 -6.91601 175.993 176.752 163.934 0.0979481 0.540178 0.128187
-95.2955 92.883 22.4561 179.025 178.02 -170.308 2.22451 5.91509 -0.855803 2.22451 5.91509 -0.855803 2.22451 5.91509 -0.855803 2.22451 5.91509 -0.855803 161.159 179.026 179.152 156.225 152.141 144.011 5.05941 44.1292 -13.8211 173.036 -175.739 175.358 14.494 3.21533 4.86993 19.8956 29.2977 29.6624 2.28574 5.58551 14.4356 13.0723 -12.9509 7.73585 178.717 -161.523 178.889 1.60618 4.81876 1.73709 5.98235 -9.44231 2.03648 5.35826 9.30559 -1.60977 175.148 176.64 -176.687 0.123491 -6.58849 0.120062 1.55214 -5.57072 6.63672 4.08841 -0.160259 -6.91584 176.169 176.909 163.838 0.0978972 0.562945 0.128188
-94.9233 92.8693 22.4696 178.858 178.023 -170.354 2.26396 5.87692 -0.957516 2.26396 5.87692 -0.957516 2.26396 5.87692 -0.957516 2.26396 5.87692 -0.957516 161.045 178.951 179.152 156.441 152.109 143.937 4.7451 44.1609 -13.5068 172.349 -175.49 175.038 14.8861 3.32998 4.87048 19.7074 29.139 29.4865 2.35264 5.63919 14.1889 13.1056 -13.0352 7.67211 178.845 -161.428 178.852 1.60152 4.91046 1.73711 5.98922 -8.89419 1.30597 5.33714 8.56226 -1.60649 174.582 176.952 -176.508 0.12238 -6.06147 0.11994 1.48307 -5.65541 6.70552 4.11618 0.0686684 -6.91582 176.359 177.025 163.766 0.0978165 0.598993 0.128189
-94.5272 92.8633 22.4509 178.778 177.997 -170.481 2.25764 5.84665 -1.03269 2.25764 5.84665 -1.03269 2.25764 5.84665 -1.03269 2.25764 5.84665 -1.03269 160.975 178.8 179.152 156.696 152.237 143.777 4.46897 44.3608 -13.2119 171.92 -175.234 174.896 15.3163 3.53004 4.87151 19.4925 28.9358 29.3566 2.40905 5.47804 13.9451 13.4552 -13.4303 7.7022 179.015 -161.316 178.849 1.59884 4.99237 1.73781 5.88834 -8.447 0.964628 5.31756 7.87065 -1.60369 173.926 177.28 -176.163 0.120831 -5.32447 0.119786 1.30523 -5.81919 6.83117 4.15183 0.362556 -6.91596 176.559 177.139 163.729 0.0979585 0.535552 0.128187
-94.1048 92.8592 22.426 178.726 177.95 -170.616 2.24245 5.81084 -1.09704 2.24245 5.81084 -1.09704 2.24245 5.81084 -1.09704 2.24245 5.81084 -1.09704 160.874 178.721 179.152 157.029 152.246 143.609 4.15283 44.3505 -12.9264 171.571 -175.146 174.819 15.7797 3.65104 4.87215 19.296 28.7546 29.1458 2.52585 5.38027 13.6564 14.2247 -14.084 8.19562 179.142 -161.148 178.714 1.59454 5.11372 1.74321 5.73772 -8.07932 0.811711 5.29742 7.15714 -1.60106 173.18 177.514 -175.663 0.11958 -4.72832 0.119676 1.07801 -5.97705 6.91271 4.18278 0.617713 -6.91622 176.781 177.239 163.729 0.0980787 0.481825 0.128186
-93.6764 92.8611 22.4172 178.716 177.957 -170.733 2.20119 5.80098 -1.15707 2.20119 5.80098 -1.15707 2.20119 5.80098 -1.15707 2.20119 5.80098 -1.15707 160.833 178.716 179.152 157.263 152.3 143.484 3.92856 44.4212 -12.6677 171.353 -175.063 174.785 16.3665 3.72439 4.87256 19.065 28.6241 28.8684 2.57194 5.24739 13.4139 14.5088 -14.1737 8.09595 179.347 -160.962 178.68 1.56438 5.23873 1.72364 5.53457 -7.68362 0.803295 5.27579 6.388 -1.59851 172.461 177.6 -175.028 0.118573 -4.24717 0.119597 0.825351 -6.06241 7.06454 4.21097 0.850129 -6.91658 176.965 177.336 163.613 0.0979572 0.536106 0.128187
-93.2233 92.8569 22.3837 178.697 177.913 -170.85 2.16997 5.77292 -1.21585 2.16997 5.77292 -1.21585 2.16997 5.77292 -1.21585 2.16997 5.77292 -1.21585 160.759 178.646 179.152 157.616 152.3 143.306 3.72717 44.3436 -12.4836 171.068 -174.876 174.716 16.8567 3.82775 4.87314 18.8053 28.522 28.6736 2.79559 4.77124 12.9593 15.0025 -14.0474 8.52737 179.468 -160.894 178.628 1.54176 5.27955 1.70965 5.2772 -7.40424 0.959441 5.25728 5.72792 -1.59655 172.195 177.729 -174.587 0.11785 -3.90202 0.119546 0.549783 -6.18788 7.24212 4.23335 1.03456 -6.91695 177.196 177.438 163.526 0.0979037 0.560041 0.128188
-92.7599 92.8377 22.3655 178.629 177.96 -170.901 2.17033 5.77318 -1.28372 2.17033 5.77318 -1.28372 2.17033 5.77318 -1.28372 2.17033 5.77318 -1.28372 160.699 178.637 179.152 157.756 152.384 143.182 3.72765 44.3143 -12.4649 170.627 -174.824 174.763 17.1828 3.90019 4.87356 18.667 28.4032 28.4586 2.98083 4.59724 12.6233 15.0538 -13.9698 8.29376 179.49 -160.752 178.598 1.53112 5.34025 1.70401 5.01947 -7.09063 1.26426 5.24053 5.12956 -1.59497 172.487 177.671 -174.408 0.11764 -3.80159 0.119532 0.332182 -6.21733 7.42183 4.25484 1.21166 -6.91737 177.341 177.415 163.376 0.0980993 0.472598 0.128186
-92.2906 92.8143 22.3473 178.551 177.96 -170.998 2.16257 5.74517 -1.33552 2.16257 5.74517 -1.33552 2.16257 5.74517 -1.33552 2.16257 5.74517 -1.33552 160.631 178.561 179.152 157.931 152.463 143.049 3.57228 44.354 -12.2033 170.617 -174.723 174.642 17.5308 4.01996 4.87426 18.5243 28.3267 28.2245 3.14773 4.49537 12.2192 15.138 -13.8789 8.19524 179.516 -160.716 178.599 1.54167 5.38456 1.71519 4.7384 -6.89186 1.84679 5.22856 4.70082 -1.59394 173.183 177.538 -174.528 0.117761 -3.85902 0.11954 0.0935747 -6.27754 7.69253 4.27186 1.35191 -6.91775 177.563 177.468 163.304 0.0981997 0.42774 0.128185
